@startuml
!include architecture-core-loader.plantuml

together {
  class AccountData {
    id: String
    userName: String
    pii: String
    firstName: String
    lastName: String
    fullName: String
    success: boolean
  }
}

class AccountDataFactory <<AccountData>> extends NamedDataFactory {
  ctor(DataLoader<AccountData>): void
  createBySpec(String): AccountData
  create(): AccountData
  createCollectionBySpec(String): List<AccountData>
  createCollection(): List<AccountData>
}

class AccountDataProperties <<AccountData>> extends GenericDataLoader

class AccountTestData <<AccountData>> extends GenericDataLoader {
  ctor(): void
}

AccountData o-- AccountDataProperties
AccountData o-- AccountTestData
AccountData o-- AccountDataFactory

AccountTestData <-- AccountDataFactory
AccountDataProperties <-- AccountDataFactory
DataLoader <-- AccountDataFactory::ctor


@enduml
